<svg viewBox="0 0 24 24" fill="none" xmlns="http://www.w3.org/2000/svg">
<mask id="mask0_2293_21518" style="mask-type:alpha" maskUnits="userSpaceOnUse" x="0" y="0" width="24" height="24">
<rect width="24" height="24" fill="#D9D9D9"/>
</mask>
<g mask="url(#mask0_2293_21518)">
<path d="M12.9999 12.6V9.00002C12.9999 8.71669 12.9041 8.47919 12.7124 8.28752C12.5207 8.09586 12.2832 8.00002 11.9999 8.00002C11.7166 8.00002 11.4791 8.09586 11.2874 8.28752C11.0957 8.47919 10.9999 8.71669 10.9999 9.00002V12.975C10.9999 13.1084 11.0249 13.2375 11.0749 13.3625C11.1249 13.4875 11.1999 13.6 11.2999 13.7L14.0999 16.5C14.2832 16.6834 14.5166 16.775 14.7999 16.775C15.0832 16.775 15.3166 16.6834 15.4999 16.5C15.6832 16.3167 15.7749 16.0834 15.7749 15.8C15.7749 15.5167 15.6832 15.2834 15.4999 15.1L12.9999 12.6ZM11.9999 22C10.7499 22 9.57907 21.7625 8.4874 21.2875C7.39574 20.8125 6.44574 20.1709 5.6374 19.3625C4.82907 18.5542 4.1874 17.6042 3.7124 16.5125C3.2374 15.4209 2.9999 14.25 2.9999 13C2.9999 11.75 3.2374 10.5792 3.7124 9.48752C4.1874 8.39586 4.82907 7.44586 5.6374 6.63752C6.44574 5.82919 7.39574 5.18752 8.4874 4.71252C9.57907 4.23752 10.7499 4.00002 11.9999 4.00002C13.2499 4.00002 14.4207 4.23752 15.5124 4.71252C16.6041 5.18752 17.5541 5.82919 18.3624 6.63752C19.1707 7.44586 19.8124 8.39586 20.2874 9.48752C20.7624 10.5792 20.9999 11.75 20.9999 13C20.9999 14.25 20.7624 15.4209 20.2874 16.5125C19.8124 17.6042 19.1707 18.5542 18.3624 19.3625C17.5541 20.1709 16.6041 20.8125 15.5124 21.2875C14.4207 21.7625 13.2499 22 11.9999 22ZM2.0499 7.30002C1.86657 7.11669 1.7749 6.88336 1.7749 6.60002C1.7749 6.31669 1.86657 6.08336 2.0499 5.90002L4.8999 3.05002C5.08324 2.86669 5.31657 2.77502 5.5999 2.77502C5.88324 2.77502 6.11657 2.86669 6.2999 3.05002C6.48324 3.23336 6.5749 3.46669 6.5749 3.75002C6.5749 4.03336 6.48324 4.26669 6.2999 4.45002L3.4499 7.30002C3.26657 7.48336 3.03324 7.57502 2.7499 7.57502C2.46657 7.57502 2.23324 7.48336 2.0499 7.30002ZM21.9499 7.30002C21.7666 7.48336 21.5332 7.57502 21.2499 7.57502C20.9666 7.57502 20.7332 7.48336 20.5499 7.30002L17.6999 4.45002C17.5166 4.26669 17.4249 4.03336 17.4249 3.75002C17.4249 3.46669 17.5166 3.23336 17.6999 3.05002C17.8832 2.86669 18.1166 2.77502 18.3999 2.77502C18.6832 2.77502 18.9166 2.86669 19.0999 3.05002L21.9499 5.90002C22.1332 6.08336 22.2249 6.31669 22.2249 6.60002C22.2249 6.88336 22.1332 7.11669 21.9499 7.30002Z" fill="currentColor"/>
</g>
</svg>
