<svg  viewBox="0 0 120 120" fill="none" xmlns="http://www.w3.org/2000/svg">
<mask id="mask0_1540_10981" style="mask-type:alpha" maskUnits="userSpaceOnUse" x="0" y="0" width="120" height="120">
<rect width="120" height="120" fill="#1D1D30" fill-opacity="0.6"/>
</mask>
<g mask="url(#mask0_1540_10981)">
<path d="M27.5 87.4981C19.8333 87.4981 13.3333 84.8314 8 79.4981C2.66667 74.1647 0 67.6647 0 59.998C0 52.3314 2.66667 45.8314 8 40.498C13.3333 35.1647 19.8333 32.498 27.5 32.498C30.5833 32.498 33.5417 33.0397 36.375 34.123C39.2083 35.2064 41.75 36.748 44 38.748L48.3958 42.756C50.5939 44.7602 50.5828 48.2236 48.3717 50.2135C46.4558 51.9378 43.5465 51.9353 41.6337 50.2075L37.25 46.248C35.9167 45.0814 34.4167 44.1647 32.75 43.498C31.0833 42.8314 29.3333 42.498 27.5 42.498C22.6667 42.498 18.5417 44.2064 15.125 47.623C11.7083 51.0397 10 55.1647 10 59.998C10 64.8314 11.7083 68.9564 15.125 72.3731C18.5417 75.7897 22.6667 77.4981 27.5 77.4981C29.3333 77.4981 31.0833 77.1647 32.75 76.4981C34.4167 75.8314 35.9167 74.9147 37.25 73.7481L76 38.748C78.25 36.748 80.7917 35.2064 83.625 34.123C86.4583 33.0397 89.4167 32.498 92.5 32.498C100.167 32.498 106.667 35.1647 112 40.498C117.333 45.8314 120 52.3314 120 59.998C120 67.6647 117.333 74.1647 112 79.4981C106.667 84.8314 100.167 87.4981 92.5 87.4981C89.4167 87.4981 86.4583 86.9564 83.625 85.8731C80.7917 84.7897 78.25 83.2481 76 81.2481L71.6042 77.2401C69.4061 75.2359 69.4173 71.7725 71.6283 69.7826C73.5442 68.0583 76.4535 68.0608 78.3663 69.7886L82.75 73.7481C84.0833 74.9147 85.5833 75.8314 87.25 76.4981C88.9167 77.1647 90.6667 77.4981 92.5 77.4981C97.3333 77.4981 101.458 75.7897 104.875 72.3731C108.292 68.9564 110 64.8314 110 59.998C110 55.1647 108.292 51.0397 104.875 47.623C101.458 44.2064 97.3333 42.498 92.5 42.498C90.6667 42.498 88.9167 42.8314 87.25 43.498C85.5833 44.1647 84.0833 45.0814 82.75 46.248L44 81.2481C41.75 83.2481 39.2083 84.7897 36.375 85.8731C33.5417 86.9564 30.5833 87.4981 27.5 87.4981Z" fill="currentColor" fill-opacity="0.36"/>
</g>
</svg>
