<svg viewBox="0 0 24 24" fill="none" xmlns="http://www.w3.org/2000/svg">
<mask id="mask0_1101_603" style="mask-type:alpha" maskUnits="userSpaceOnUse" x="0" y="0">
<rect width="24" height="24" fill="#D9D9D9"/>
</mask>
<g mask="url(#mask0_1101_603)">
<path d="M11.0001 7.82499L6.10011 12.725C5.90011 12.925 5.66678 13.0208 5.40011 13.0125C5.13344 13.0042 4.90011 12.9 4.70011 12.7C4.51678 12.5 4.42094 12.2667 4.41261 12C4.40428 11.7333 4.50011 11.5 4.70011 11.3L11.3001 4.69999C11.4001 4.59999 11.5084 4.52915 11.6251 4.48749C11.7418 4.44582 11.8668 4.42499 12.0001 4.42499C12.1334 4.42499 12.2584 4.44582 12.3751 4.48749C12.4918 4.52915 12.6001 4.59999 12.7001 4.69999L19.3001 11.3C19.4834 11.4833 19.5751 11.7125 19.5751 11.9875C19.5751 12.2625 19.4834 12.5 19.3001 12.7C19.1001 12.9 18.8626 13 18.5876 13C18.3126 13 18.0751 12.9 17.8751 12.7L13.0001 7.82499V19C13.0001 19.2833 12.9043 19.5208 12.7126 19.7125C12.5209 19.9042 12.2834 20 12.0001 20C11.7168 20 11.4793 19.9042 11.2876 19.7125C11.0959 19.5208 11.0001 19.2833 11.0001 19V7.82499Z" fill="currentColor"/>
</g>
</svg>
