<svg viewBox="0 0 24 24" fill="none" xmlns="http://www.w3.org/2000/svg">
<mask id="mask0_1133_8989" style="mask-type:alpha" maskUnits="userSpaceOnUse" x="0" y="0">
<rect width="24" height="24" fill="#D9D9D9"/>
</mask>
<g mask="url(#mask0_1133_8989)">
<path d="M20 20C20.55 20 21.0204 20.1962 21.4121 20.5879C21.8038 20.9796 22 21.45 22 22C22 22.55 21.8038 23.0204 21.4121 23.4121C21.0204 23.8038 20.55 24 20 24H4C3.45 24 2.97956 23.8038 2.58789 23.4121C2.19622 23.0204 2 22.55 2 22C2 21.45 2.19622 20.9796 2.58789 20.5879C2.97956 20.1962 3.45 20 4 20H20ZM16.5996 2C16.8663 2 17.125 2.05039 17.375 2.15039C17.6248 2.25034 17.8499 2.39979 18.0498 2.59961L19.4248 4C19.6248 4.18333 19.7706 4.40039 19.8623 4.65039C19.9539 4.90024 20 5.15831 20 5.4248C20 5.67471 19.9539 5.92053 19.8623 6.16211C19.7706 6.40378 19.6248 6.6252 19.4248 6.8252L8.5498 17.7002C8.44996 17.8 8.33765 17.8748 8.21289 17.9248C8.08795 17.9748 7.95846 18 7.8252 18H5C4.71667 18 4.47878 17.9046 4.28711 17.7129C4.09544 17.5212 4 17.2833 4 17V14.1748C4.00002 14.0415 4.02522 13.912 4.0752 13.7871C4.12516 13.6624 4.20001 13.55 4.2998 13.4502L15.2002 2.5752C15.3835 2.39186 15.5962 2.25039 15.8379 2.15039C16.0794 2.05049 16.3332 2.00005 16.5996 2ZM16.7861 4.11426C16.7261 3.93036 16.4662 3.93034 16.4062 4.11426L16.21 4.7168C16.1832 4.79902 16.107 4.85531 16.0205 4.85547H15.3867C15.193 4.85555 15.1128 5.10293 15.2695 5.2168L15.7812 5.58887C15.8513 5.63975 15.8812 5.73015 15.8545 5.8125L15.6582 6.41504C15.5985 6.59923 15.8101 6.75252 15.9668 6.63867L16.4785 6.2666C16.5486 6.21567 16.6438 6.21567 16.7139 6.2666L17.2266 6.63867C17.3832 6.75213 17.5939 6.59914 17.5342 6.41504L17.3379 5.8125C17.3113 5.73016 17.3411 5.63975 17.4111 5.58887L17.9229 5.2168C18.0796 5.10292 17.9994 4.85547 17.8057 4.85547H17.1729C17.0862 4.85547 17.0092 4.79916 16.9824 4.7168L16.7861 4.11426Z" fill="currentColor"/>
</g>
</svg>
