<svg viewBox="0 0 24 24" fill="none" xmlns="http://www.w3.org/2000/svg">
<mask id="mask0_1133_8962" style="mask-type:alpha" maskUnits="userSpaceOnUse" x="0" y="0">
<rect width="24" height="24" fill="#D9D9D9"/>
</mask>
<g mask="url(#mask0_1133_8962)">
<path d="M5.77778 21C5.28889 21 4.87037 20.8237 4.52222 20.4713C4.17407 20.1187 4 19.695 4 19.2V6.6C4 6.105 4.17407 5.68125 4.52222 5.32875C4.87037 4.97625 5.28889 4.8 5.77778 4.8H6.66667V3.9C6.66667 3.645 6.75185 3.43125 6.92222 3.25875C7.09259 3.08625 7.3037 3 7.55556 3C7.80741 3 8.01852 3.08625 8.18889 3.25875C8.35926 3.43125 8.44444 3.645 8.44444 3.9V4.8H15.5556V3.9C15.5556 3.645 15.6407 3.43125 15.8111 3.25875C15.9815 3.08625 16.1926 3 16.4444 3C16.6963 3 16.9074 3.08625 17.0778 3.25875C17.2481 3.43125 17.3333 3.645 17.3333 3.9V4.8H18.2222C18.7111 4.8 19.1296 4.97625 19.4778 5.32875C19.8259 5.68125 20 6.105 20 6.6V19.2C20 19.695 19.8259 20.1187 19.4778 20.4713C19.1296 20.8237 18.7111 21 18.2222 21H5.77778ZM5.77778 19.2H18.2222V10.2H5.77778V19.2ZM12 13.8C11.7481 13.8 11.537 13.7137 11.3667 13.5413C11.1963 13.3688 11.1111 13.155 11.1111 12.9C11.1111 12.645 11.1963 12.4312 11.3667 12.2587C11.537 12.0863 11.7481 12 12 12C12.2519 12 12.463 12.0863 12.6333 12.2587C12.8037 12.4312 12.8889 12.645 12.8889 12.9C12.8889 13.155 12.8037 13.3688 12.6333 13.5413C12.463 13.7137 12.2519 13.8 12 13.8ZM8.44444 13.8C8.19259 13.8 7.98148 13.7137 7.81111 13.5413C7.64074 13.3688 7.55556 13.155 7.55556 12.9C7.55556 12.645 7.64074 12.4312 7.81111 12.2587C7.98148 12.0863 8.19259 12 8.44444 12C8.6963 12 8.90741 12.0863 9.07778 12.2587C9.24815 12.4312 9.33333 12.645 9.33333 12.9C9.33333 13.155 9.24815 13.3688 9.07778 13.5413C8.90741 13.7137 8.6963 13.8 8.44444 13.8ZM15.5556 13.8C15.3037 13.8 15.0926 13.7137 14.9222 13.5413C14.7519 13.3688 14.6667 13.155 14.6667 12.9C14.6667 12.645 14.7519 12.4312 14.9222 12.2587C15.0926 12.0863 15.3037 12 15.5556 12C15.8074 12 16.0185 12.0863 16.1889 12.2587C16.3593 12.4312 16.4444 12.645 16.4444 12.9C16.4444 13.155 16.3593 13.3688 16.1889 13.5413C16.0185 13.7137 15.8074 13.8 15.5556 13.8ZM12 17.4C11.7481 17.4 11.537 17.3138 11.3667 17.1413C11.1963 16.9688 11.1111 16.755 11.1111 16.5C11.1111 16.245 11.1963 16.0312 11.3667 15.8588C11.537 15.6862 11.7481 15.6 12 15.6C12.2519 15.6 12.463 15.6862 12.6333 15.8588C12.8037 16.0312 12.8889 16.245 12.8889 16.5C12.8889 16.755 12.8037 16.9688 12.6333 17.1413C12.463 17.3138 12.2519 17.4 12 17.4ZM8.44444 17.4C8.19259 17.4 7.98148 17.3138 7.81111 17.1413C7.64074 16.9688 7.55556 16.755 7.55556 16.5C7.55556 16.245 7.64074 16.0312 7.81111 15.8588C7.98148 15.6862 8.19259 15.6 8.44444 15.6C8.6963 15.6 8.90741 15.6862 9.07778 15.8588C9.24815 16.0312 9.33333 16.245 9.33333 16.5C9.33333 16.755 9.24815 16.9688 9.07778 17.1413C8.90741 17.3138 8.6963 17.4 8.44444 17.4ZM15.5556 17.4C15.3037 17.4 15.0926 17.3138 14.9222 17.1413C14.7519 16.9688 14.6667 16.755 14.6667 16.5C14.6667 16.245 14.7519 16.0312 14.9222 15.8588C15.0926 15.6862 15.3037 15.6 15.5556 15.6C15.8074 15.6 16.0185 15.6862 16.1889 15.8588C16.3593 16.0312 16.4444 16.245 16.4444 16.5C16.4444 16.755 16.3593 16.9688 16.1889 17.1413C16.0185 17.3138 15.8074 17.4 15.5556 17.4Z" fill="currentColor"/>
</g>
</svg>
