<svg viewBox="0 0 12 12" fill="none" xmlns="http://www.w3.org/2000/svg">
<mask id="mask0_5245_28320" style="mask-type:alpha" maskUnits="userSpaceOnUse" x="0" y="0" width="12" height="12">
<rect width="12" height="12" fill="#D9D9D9"/>
</mask>
<g mask="url(#mask0_5245_28320)">
<path d="M3 9L1.85 10.15C1.69167 10.3083 1.51042 10.3438 1.30625 10.2563C1.10208 10.1688 1 10.0125 1 9.7875V2C1 1.725 1.09792 1.48958 1.29375 1.29375C1.48958 1.09792 1.725 1 2 1H10C10.275 1 10.5104 1.09792 10.7063 1.29375C10.9021 1.48958 11 1.725 11 2V8C11 8.275 10.9021 8.51042 10.7063 8.70625C10.5104 8.90208 10.275 9 10 9H3ZM3.5 7H6.5C6.64167 7 6.76042 6.95208 6.85625 6.85625C6.95208 6.76042 7 6.64167 7 6.5C7 6.35833 6.95208 6.23958 6.85625 6.14375C6.76042 6.04792 6.64167 6 6.5 6H3.5C3.35833 6 3.23958 6.04792 3.14375 6.14375C3.04792 6.23958 3 6.35833 3 6.5C3 6.64167 3.04792 6.76042 3.14375 6.85625C3.23958 6.95208 3.35833 7 3.5 7ZM3.5 5.5H8.5C8.64167 5.5 8.76042 5.45208 8.85625 5.35625C8.95208 5.26042 9 5.14167 9 5C9 4.85833 8.95208 4.73958 8.85625 4.64375C8.76042 4.54792 8.64167 4.5 8.5 4.5H3.5C3.35833 4.5 3.23958 4.54792 3.14375 4.64375C3.04792 4.73958 3 4.85833 3 5C3 5.14167 3.04792 5.26042 3.14375 5.35625C3.23958 5.45208 3.35833 5.5 3.5 5.5ZM3.5 4H8.5C8.64167 4 8.76042 3.95208 8.85625 3.85625C8.95208 3.76042 9 3.64167 9 3.5C9 3.35833 8.95208 3.23958 8.85625 3.14375C8.76042 3.04792 8.64167 3 8.5 3H3.5C3.35833 3 3.23958 3.04792 3.14375 3.14375C3.04792 3.23958 3 3.35833 3 3.5C3 3.64167 3.04792 3.76042 3.14375 3.85625C3.23958 3.95208 3.35833 4 3.5 4Z" fill="currentColor"/>
</g>
</svg>
