<svg viewBox="0 0 24 24" fill="none" xmlns="http://www.w3.org/2000/svg">
<path d="M12 5.125C15.3628 5.125 18.154 7.62425 18.457 10.8486C20.4475 11.13 22 12.7957 22 14.8408C22 17.0868 20.1279 18.875 17.8594 18.875H6.72656C4.13442 18.875 2 16.8322 2 14.2725C2.00013 12.0688 3.58239 10.2439 5.67773 9.78125C5.85592 8.7023 6.54967 7.62837 7.50684 6.80273C8.63933 5.82603 10.217 5.125 12 5.125ZM12.4424 9.05762C12.1983 8.81354 11.8017 8.81354 11.5576 9.05762L9.05762 11.5576C8.81354 11.8017 8.81354 12.1983 9.05762 12.4424C9.30169 12.6865 9.69831 12.6865 9.94238 12.4424L11.375 11.0088V15.75C11.375 16.0952 11.6548 16.375 12 16.375C12.3452 16.375 12.625 16.0952 12.625 15.75V11.0088L14.0576 12.4424C14.3017 12.6865 14.6983 12.6865 14.9424 12.4424C15.1865 12.1983 15.1865 11.8017 14.9424 11.5576L12.4424 9.05762Z" fill="currentColor"/>
</svg>
