<svg viewBox="0 0 24 24" fill="none" xmlns="http://www.w3.org/2000/svg">
<path d="M12 5.125C15.3628 5.125 18.154 7.62425 18.457 10.8486C20.4475 11.13 22 12.7957 22 14.8408C22 17.0868 20.1279 18.875 17.8594 18.875H6.72656C4.13442 18.875 2 16.8322 2 14.2725C2.00013 12.0688 3.58239 10.2439 5.67773 9.78125C5.85592 8.7023 6.54967 7.62837 7.50684 6.80273C8.63933 5.82603 10.217 5.125 12 5.125ZM12 8.875C11.6548 8.875 11.375 9.15482 11.375 9.5V14.2412L9.94238 12.8076C9.69831 12.5635 9.30169 12.5635 9.05762 12.8076C8.81354 13.0517 8.81354 13.4483 9.05762 13.6924L11.5576 16.1924C11.8017 16.4365 12.1983 16.4365 12.4424 16.1924L14.9424 13.6924C15.1865 13.4483 15.1865 13.0517 14.9424 12.8076C14.6983 12.5635 14.3017 12.5635 14.0576 12.8076L12.625 14.2412V9.5C12.625 9.15482 12.3452 8.875 12 8.875Z" fill="currentColor"/>
</svg>
