<svg viewBox="0 0 24 24" fill="none" xmlns="http://www.w3.org/2000/svg">
<path d="M12 5.125C15.3628 5.125 18.154 7.62425 18.457 10.8486C20.4475 11.13 22 12.7957 22 14.8408C22 17.0868 20.1279 18.875 17.8594 18.875H6.72656C4.13442 18.875 2 16.8322 2 14.2725C2.00013 12.0688 3.58239 10.2439 5.67773 9.78125C5.85592 8.7023 6.54967 7.62837 7.50684 6.80273C8.63933 5.82603 10.217 5.125 12 5.125ZM12 9.5C11.6548 9.5 11.375 9.77982 11.375 10.125V12H9.5C9.15482 12 8.875 12.2798 8.875 12.625C8.875 12.9702 9.15482 13.25 9.5 13.25H11.375V15.125C11.375 15.4702 11.6548 15.75 12 15.75C12.3452 15.75 12.625 15.4702 12.625 15.125V13.25H14.5C14.8452 13.25 15.125 12.9702 15.125 12.625C15.125 12.2798 14.8452 12 14.5 12H12.625V10.125C12.625 9.77982 12.3452 9.5 12 9.5Z" fill="currentColor"/>
</svg>
