<svg viewBox="0 0 24 24" fill="none" xmlns="http://www.w3.org/2000/svg">
<path d="M12 5.125C15.3628 5.125 18.154 7.62425 18.457 10.8486C20.4475 11.13 22 12.7957 22 14.8408C22 17.0868 20.1279 18.875 17.8594 18.875H6.72656C4.13442 18.875 2 16.8322 2 14.2725C2.00013 12.0688 3.58239 10.2439 5.67773 9.78125C5.85592 8.7023 6.54967 7.62837 7.50684 6.80273C8.63933 5.82603 10.217 5.125 12 5.125ZM14.9424 10.3076C14.6983 10.0635 14.3017 10.0635 14.0576 10.3076L10.75 13.6162L9.31738 12.1826C9.07331 11.9385 8.67669 11.9385 8.43262 12.1826C8.18854 12.4267 8.18854 12.8233 8.43262 13.0674L10.3076 14.9424C10.4248 15.0596 10.5842 15.125 10.75 15.125C10.9158 15.125 11.0752 15.0596 11.1924 14.9424L14.9424 11.1924C15.1865 10.9483 15.1865 10.5517 14.9424 10.3076Z" fill="currentColor"/>
</svg>
