<svg viewBox="0 0 24 24" fill="none" xmlns="http://www.w3.org/2000/svg">
<g clip-path="url(#clip0_1131_9710)">
<path fill-rule="evenodd" clip-rule="evenodd" d="M12.4805 0C17.9107 1.39934e-09 20.6254 0.000491142 22.3125 1.6875C23.9995 3.37452 24 6.08924 24 11.5195V12.4805C24 17.9108 23.9995 20.6254 22.3125 22.3125C20.6254 23.9995 17.9108 24 12.4805 24H11.5195C6.08924 24 3.37452 23.9995 1.6875 22.3125C0.000491142 20.6254 1.39935e-09 17.9107 0 12.4805V11.5195C1.39934e-09 6.08924 0.000483632 3.37452 1.6875 1.6875C3.37452 0.000483632 6.08924 1.39935e-09 11.5195 0H12.4805ZM11.792 2.83984C11.7012 2.83984 11.6254 2.9131 11.6211 3.00391C11.4976 6.27043 11.0835 8.25815 9.69238 9.64941C8.30253 11.0393 6.31861 11.4536 3.05762 11.5771C2.96692 11.5802 2.89355 11.6559 2.89355 11.748V12.1279C2.89355 12.2187 2.96692 12.2944 3.05762 12.2988C6.31861 12.4223 8.30393 12.8381 9.69238 14.2266C11.0807 15.615 11.4952 17.5956 11.6201 20.8506C11.6229 20.9414 11.6979 21.0154 11.79 21.0156H12.1719C12.2627 21.0156 12.3385 20.9415 12.3428 20.8506C12.4677 17.5955 12.8821 15.615 14.2705 14.2266C15.6603 12.8368 17.6435 12.4224 20.9043 12.2988C20.9952 12.296 21.0693 12.2202 21.0693 12.1279V11.748H21.0713C21.0713 11.6572 20.9971 11.5815 20.9062 11.5771C17.6453 11.4536 15.6609 11.0377 14.2725 9.64941C12.8811 8.25814 12.4663 6.272 12.3428 3.00391C12.3399 2.9131 12.2641 2.83984 12.1719 2.83984H11.792Z" fill="currentColor"/>
</g>
<defs>
<clipPath id="clip0_1131_9710">
<rect width="24" height="24" fill="white"/>
</clipPath>
</defs>
</svg>
