<svg viewBox="0 0 24 24" fill="none" xmlns="http://www.w3.org/2000/svg">
<mask id="mask0_1133_9031" style="mask-type:alpha" maskUnits="userSpaceOnUse" x="0" y="0">
<rect width="24" height="24" fill="#D9D9D9"/>
</mask>
<g mask="url(#mask0_1133_9031)">
<path d="M12 17C11.7167 17 11.4792 16.9042 11.2875 16.7125C11.0958 16.5208 11 16.2833 11 16V8C11 7.71667 11.0958 7.47917 11.2875 7.2875C11.4792 7.09583 11.7167 7 12 7H20C20.2833 7 20.5208 7.09583 20.7125 7.2875C20.9042 7.47917 21 7.71667 21 8V16C21 16.2833 20.9042 16.5208 20.7125 16.7125C20.5208 16.9042 20.2833 17 20 17H12ZM13 15H19V9H13V15ZM4 21C3.71667 21 3.47917 20.9042 3.2875 20.7125C3.09583 20.5208 3 20.2833 3 20C3 19.7167 3.09583 19.4792 3.2875 19.2875C3.47917 19.0958 3.71667 19 4 19H20C20.2833 19 20.5208 19.0958 20.7125 19.2875C20.9042 19.4792 21 19.7167 21 20C21 20.2833 20.9042 20.5208 20.7125 20.7125C20.5208 20.9042 20.2833 21 20 21H4ZM4 17C3.71667 17 3.47917 16.9042 3.2875 16.7125C3.09583 16.5208 3 16.2833 3 16C3 15.7167 3.09583 15.4792 3.2875 15.2875C3.47917 15.0958 3.71667 15 4 15H8C8.28333 15 8.52083 15.0958 8.7125 15.2875C8.90417 15.4792 9 15.7167 9 16C9 16.2833 8.90417 16.5208 8.7125 16.7125C8.52083 16.9042 8.28333 17 8 17H4ZM4 13C3.71667 13 3.47917 12.9042 3.2875 12.7125C3.09583 12.5208 3 12.2833 3 12C3 11.7167 3.09583 11.4792 3.2875 11.2875C3.47917 11.0958 3.71667 11 4 11H8C8.28333 11 8.52083 11.0958 8.7125 11.2875C8.90417 11.4792 9 11.7167 9 12C9 12.2833 8.90417 12.5208 8.7125 12.7125C8.52083 12.9042 8.28333 13 8 13H4ZM4 9C3.71667 9 3.47917 8.90417 3.2875 8.7125C3.09583 8.52083 3 8.28333 3 8C3 7.71667 3.09583 7.47917 3.2875 7.2875C3.47917 7.09583 3.71667 7 4 7H8C8.28333 7 8.52083 7.09583 8.7125 7.2875C8.90417 7.47917 9 7.71667 9 8C9 8.28333 8.90417 8.52083 8.7125 8.7125C8.52083 8.90417 8.28333 9 8 9H4ZM4 5C3.71667 5 3.47917 4.90417 3.2875 4.7125C3.09583 4.52083 3 4.28333 3 4C3 3.71667 3.09583 3.47917 3.2875 3.2875C3.47917 3.09583 3.71667 3 4 3H20C20.2833 3 20.5208 3.09583 20.7125 3.2875C20.9042 3.47917 21 3.71667 21 4C21 4.28333 20.9042 4.52083 20.7125 4.7125C20.5208 4.90417 20.2833 5 20 5H4Z" fill="currentColor"/>
</g>
</svg>
