<svg viewBox="0 0 24 24" fill="none" xmlns="http://www.w3.org/2000/svg">
<path d="M8.25 5.75C8.25 3.67893 9.92893 2 12 2C14.0711 2 15.75 3.67893 15.75 5.75V12C15.75 14.0711 14.0711 15.75 12 15.75C9.92893 15.75 8.25 14.0711 8.25 12V5.75Z" fill="currentColor"/>
<path fill-rule="evenodd" clip-rule="evenodd" d="M6.375 10.125C6.72018 10.125 7 10.4048 7 10.75V12C7 14.7614 9.23858 17 12 17C14.7614 17 17 14.7614 17 12V10.75C17 10.4048 17.2798 10.125 17.625 10.125C17.9702 10.125 18.25 10.4048 18.25 10.75V12C18.25 15.2408 15.7833 17.9056 12.625 18.2191V20.75H16.375C16.7202 20.75 17 21.0298 17 21.375C17 21.7202 16.7202 22 16.375 22H7.625C7.27982 22 7 21.7202 7 21.375C7 21.0298 7.27982 20.75 7.625 20.75H11.375V18.2191C8.21667 17.9056 5.75 15.2408 5.75 12V10.75C5.75 10.4048 6.02982 10.125 6.375 10.125Z" fill="currentColor"/>
</svg>
