<svg viewBox="0 0 24 24" fill="none" xmlns="http://www.w3.org/2000/svg">
<mask id="mask0_1101_584" style="mask-type:alpha" maskUnits="userSpaceOnUse" x="0" y="0">
<rect width="24" height="24" fill="#D9D9D9"/>
</mask>
<g mask="url(#mask0_1101_584)">
<path d="M5 21C4.45 21 3.97917 20.8042 3.5875 20.4125C3.19583 20.0208 3 19.55 3 19V5C3 4.45 3.19583 3.97917 3.5875 3.5875C3.97917 3.19583 4.45 3 5 3H19C19.55 3 20.0208 3.19583 20.4125 3.5875C20.8042 3.97917 21 4.45 21 5V11C21 11.2833 20.9042 11.5208 20.7125 11.7125C20.5208 11.9042 20.2833 12 20 12C19.7167 12 19.4792 11.9042 19.2875 11.7125C19.0958 11.5208 19 11.2833 19 11V5H5V19H11C11.2833 19 11.5208 19.0958 11.7125 19.2875C11.9042 19.4792 12 19.7167 12 20C12 20.2833 11.9042 20.5208 11.7125 20.7125C11.5208 20.9042 11.2833 21 11 21H5ZM17.6 19L9 10.4C8.81667 10.2167 8.72083 9.9875 8.7125 9.7125C8.70417 9.4375 8.8 9.2 9 9C9.18333 8.81667 9.41667 8.725 9.7 8.725C9.98333 8.725 10.2167 8.81667 10.4 9L19 17.575V15C19 14.7167 19.0958 14.4792 19.2875 14.2875C19.4792 14.0958 19.7167 14 20 14C20.2833 14 20.5208 14.0958 20.7125 14.2875C20.9042 14.4792 21 14.7167 21 15V20C21 20.2833 20.9042 20.5208 20.7125 20.7125C20.5208 20.9042 20.2833 21 20 21H15C14.7167 21 14.4792 20.9042 14.2875 20.7125C14.0958 20.5208 14 20.2833 14 20C14 19.7167 14.0958 19.4792 14.2875 19.2875C14.4792 19.0958 14.7167 19 15 19H17.6Z" fill="currentColor"/>
</g>
</svg>
