<svg viewBox="0 0 24 24" fill="none" xmlns="http://www.w3.org/2000/svg">
<mask id="mask0_1101_547" style="mask-type:alpha" maskUnits="userSpaceOnUse" x="0" y="0">
<rect width="24" height="24" fill="#D9D9D9"/>
</mask>
<g mask="url(#mask0_1101_547)">
<path d="M11 11H6C5.71667 11 5.47917 10.9042 5.2875 10.7125C5.09583 10.5208 5 10.2833 5 10C5 9.71667 5.09583 9.47917 5.2875 9.2875C5.47917 9.09583 5.71667 9 6 9H11V4C11 3.71667 11.0958 3.47917 11.2875 3.2875C11.4792 3.09583 11.7167 3 12 3C12.2833 3 12.5208 3.09583 12.7125 3.2875C12.9042 3.47917 13 3.71667 13 4V9H18C18.2833 9 18.5208 9.09583 18.7125 9.2875C18.9042 9.47917 19 9.71667 19 10C19 10.2833 18.9042 10.5208 18.7125 10.7125C18.5208 10.9042 18.2833 11 18 11H13V16C13 16.2833 12.9042 16.5208 12.7125 16.7125C12.5208 16.9042 12.2833 17 12 17C11.7167 17 11.4792 16.9042 11.2875 16.7125C11.0958 16.5208 11 16.2833 11 16V11Z" fill="currentColor"/>
<path d="M6 21C5.71667 21 5.47917 20.9042 5.2875 20.7125C5.09583 20.5208 5 20.2833 5 20C5 19.7167 5.09583 19.4792 5.2875 19.2875C5.47917 19.0958 5.71667 19 6 19H18C18.2833 19 18.5208 19.0958 18.7125 19.2875C18.9042 19.4792 19 19.7167 19 20C19 20.2833 18.9042 20.5208 18.7125 20.7125C18.5208 20.9042 18.2833 21 18 21H6Z" fill="currentColor"/>
</g>
</svg>
