<svg viewBox="0 0 24 24" fill="none" xmlns="http://www.w3.org/2000/svg">
<mask id="mask0_1133_9177" style="mask-type:alpha" maskUnits="userSpaceOnUse" x="0" y="0">
<rect width="24" height="24" fill="#D9D9D9"/>
</mask>
<g mask="url(#mask0_1133_9177)">
<path d="M23 8.99989C23 10.1499 22.7958 11.2457 22.3875 12.2874C21.9792 13.3291 21.425 14.2749 20.725 15.1249C20.525 15.3582 20.275 15.4832 19.975 15.4999C19.675 15.5166 19.4083 15.4082 19.175 15.1749C18.9583 14.9582 18.8583 14.6999 18.875 14.3999C18.8917 14.0999 18.9917 13.8249 19.175 13.5749C19.675 12.9416 20.0625 12.2332 20.3375 11.4499C20.6125 10.6666 20.75 9.84989 20.75 8.99989C20.75 8.14989 20.6125 7.34156 20.3375 6.57489C20.0625 5.80823 19.675 5.10823 19.175 4.47489C18.975 4.22489 18.8708 3.94989 18.8625 3.64989C18.8542 3.34989 18.9583 3.08323 19.175 2.84989C19.3917 2.61656 19.6542 2.50406 19.9625 2.51239C20.2708 2.52073 20.525 2.64156 20.725 2.87489C21.425 3.72489 21.9792 4.67073 22.3875 5.71239C22.7958 6.75406 23 7.84989 23 8.99989ZM18.45 8.99989C18.45 9.53323 18.3667 10.0457 18.2 10.5374C18.0333 11.0291 17.8 11.4832 17.5 11.8999C17.3167 12.1499 17.0708 12.2791 16.7625 12.2874C16.4542 12.2957 16.1833 12.1832 15.95 11.9499C15.7333 11.7332 15.6208 11.4707 15.6125 11.1624C15.6042 10.8541 15.675 10.5582 15.825 10.2749C15.925 10.0916 16.0042 9.89156 16.0625 9.67489C16.1208 9.45823 16.15 9.23323 16.15 8.99989C16.15 8.76656 16.1208 8.54156 16.0625 8.32489C16.0042 8.10823 15.925 7.89989 15.825 7.69989C15.675 7.41656 15.6042 7.12489 15.6125 6.82489C15.6208 6.52489 15.7333 6.26656 15.95 6.04989C16.1833 5.81656 16.4542 5.70406 16.7625 5.71239C17.0708 5.72073 17.3167 5.84989 17.5 6.09989C17.8 6.51656 18.0333 6.97073 18.2 7.46239C18.3667 7.95406 18.45 8.46656 18.45 8.99989ZM9 12.9999C7.9 12.9999 6.95833 12.6082 6.175 11.8249C5.39167 11.0416 5 10.0999 5 8.99989C5 7.89989 5.39167 6.95823 6.175 6.17489C6.95833 5.39156 7.9 4.99989 9 4.99989C10.1 4.99989 11.0417 5.39156 11.825 6.17489C12.6083 6.95823 13 7.89989 13 8.99989C13 10.0999 12.6083 11.0416 11.825 11.8249C11.0417 12.6082 10.1 12.9999 9 12.9999ZM1 18.9999V18.1999C1 17.6499 1.14167 17.1332 1.425 16.6499C1.70833 16.1666 2.1 15.7999 2.6 15.5499C3.45 15.1166 4.40833 14.7499 5.475 14.4499C6.54167 14.1499 7.71667 13.9999 9 13.9999C10.2833 13.9999 11.4583 14.1499 12.525 14.4499C13.5917 14.7499 14.55 15.1166 15.4 15.5499C15.9 15.7999 16.2917 16.1666 16.575 16.6499C16.8583 17.1332 17 17.6499 17 18.1999V18.9999C17 19.5499 16.8042 20.0207 16.4125 20.4124C16.0208 20.8041 15.55 20.9999 15 20.9999H3C2.45 20.9999 1.97917 20.8041 1.5875 20.4124C1.19583 20.0207 1 19.5499 1 18.9999Z" fill="currentColor"/>
</g>
</svg>
