<svg viewBox="0 0 24 24" fill="none" xmlns="http://www.w3.org/2000/svg">
<path fill-rule="evenodd" clip-rule="evenodd" d="M2.625 6.37463C2.27982 6.37463 2 6.65446 2 6.99963V16.9996C2 17.3448 2.27982 17.6246 2.625 17.6246C2.97018 17.6246 3.25 17.3448 3.25 16.9996V6.99963C3.25 6.65446 2.97018 6.37463 2.625 6.37463Z" fill="currentColor"/>
<path d="M3.12946 12.8704L11.084 17.4853C11.7594 17.8771 12.625 17.4032 12.625 16.6149V7.38521C12.625 6.59692 11.7594 6.12302 11.084 6.51483L3.12946 11.1297C2.45685 11.5199 2.45685 12.4802 3.12946 12.8704Z" fill="currentColor"/>
<path d="M12.5045 12.8704L20.459 17.4853C21.1344 17.8771 22 17.4032 22 16.6149V7.38521C22 6.59692 21.1344 6.12302 20.459 6.51483L12.5045 11.1297C11.8318 11.5199 11.8318 12.4802 12.5045 12.8704Z" fill="currentColor"/>
</svg>
