<svg viewBox="0 0 24 24" fill="none" xmlns="http://www.w3.org/2000/svg">
<path fill-rule="evenodd" clip-rule="evenodd" d="M21.375 6.37463C21.7202 6.37463 22 6.65446 22 6.99963V16.9996C22 17.3448 21.7202 17.6246 21.375 17.6246C21.0298 17.6246 20.75 17.3448 20.75 16.9996V6.99963C20.75 6.65446 21.0298 6.37463 21.375 6.37463Z" fill="currentColor"/>
<path d="M11.4955 12.8704L3.54099 17.4853C2.86563 17.8771 2 17.4032 2 16.6149V7.38521C2 6.59692 2.86563 6.12302 3.54099 6.51483L11.4955 11.1297C12.1682 11.5199 12.1682 12.4802 11.4955 12.8704Z" fill="currentColor"/>
<path d="M20.8705 12.8704L12.916 17.4853C12.2406 17.8771 11.375 17.4032 11.375 16.6149V7.38521C11.375 6.59692 12.2406 6.12302 12.916 6.51483L20.8705 11.1297C21.5432 11.5199 21.5432 12.4802 20.8705 12.8704Z" fill="currentColor"/>
</svg>
