<svg  viewBox="0 0 21 20" fill="none" xmlns="http://www.w3.org/2000/svg">
<path d="M16.3337 12.5C16.5003 12.3333 16.6982 12.25 16.9274 12.25C17.1566 12.25 17.3545 12.3333 17.5212 12.5L18.8337 13.8333C19.0003 14 19.0837 14.1944 19.0837 14.4167C19.0837 14.6389 19.0003 14.8333 18.8337 15C18.667 15.1667 18.4725 15.25 18.2503 15.25C18.0281 15.25 17.8337 15.1667 17.667 15L16.3337 13.6875C16.167 13.5208 16.0837 13.3229 16.0837 13.0937C16.0837 12.8646 16.167 12.6667 16.3337 12.5ZM17.167 2.5C17.3337 2.66667 17.417 2.86458 17.417 3.09375C17.417 3.32292 17.3337 3.52083 17.167 3.6875L15.8545 5C15.6878 5.16667 15.4899 5.25 15.2607 5.25C15.0316 5.25 14.8337 5.16667 14.667 5C14.5003 4.83333 14.417 4.63542 14.417 4.40625C14.417 4.17708 14.5003 3.97917 14.667 3.8125L16.0003 2.5C16.167 2.33333 16.3614 2.25 16.5837 2.25C16.8059 2.25 17.0003 2.33333 17.167 2.5ZM3.83366 2.5C4.00033 2.33333 4.19824 2.25 4.42741 2.25C4.65658 2.25 4.85449 2.33333 5.02116 2.5L6.33366 3.83333C6.50033 4 6.58366 4.19444 6.58366 4.41667C6.58366 4.63889 6.50033 4.83333 6.33366 5C6.16699 5.16667 5.96908 5.25 5.73991 5.25C5.51074 5.25 5.31283 5.16667 5.14616 5L3.83366 3.6875C3.66699 3.52083 3.58366 3.32292 3.58366 3.09375C3.58366 2.86458 3.66699 2.66667 3.83366 2.5ZM4.66699 12.5C4.83366 12.6667 4.91699 12.8646 4.91699 13.0937C4.91699 13.3229 4.83366 13.5208 4.66699 13.6875L3.35449 15C3.18783 15.1667 2.98991 15.25 2.76074 15.25C2.53158 15.25 2.33366 15.1667 2.16699 15C2.00033 14.8333 1.91699 14.6354 1.91699 14.4062C1.91699 14.1771 2.00033 13.9792 2.16699 13.8125L3.50033 12.5C3.66699 12.3333 3.86144 12.25 4.08366 12.25C4.30588 12.25 4.50033 12.3333 4.66699 12.5ZM10.5003 14.3958L7.04199 16.4792C6.88921 16.5764 6.72949 16.6181 6.56283 16.6042C6.39616 16.5903 6.25033 16.5347 6.12533 16.4375C6.00033 16.3403 5.9031 16.2187 5.83366 16.0729C5.76421 15.9271 5.75033 15.7639 5.79199 15.5833L6.70866 11.6458L3.64616 9C3.50727 8.875 3.42046 8.73264 3.38574 8.57292C3.35102 8.41319 3.36144 8.25694 3.41699 8.10417C3.47255 7.95139 3.55588 7.82639 3.66699 7.72917C3.7781 7.63194 3.93088 7.56944 4.12533 7.54167L8.16699 7.1875L9.72949 3.47917C9.79894 3.3125 9.90658 3.1875 10.0524 3.10417C10.1982 3.02083 10.3475 2.97917 10.5003 2.97917C10.6531 2.97917 10.8024 3.02083 10.9482 3.10417C11.0941 3.1875 11.2017 3.3125 11.2712 3.47917L12.8337 7.1875L16.8753 7.54167C17.0698 7.56944 17.2225 7.63194 17.3337 7.72917C17.4448 7.82639 17.5281 7.95139 17.5837 8.10417C17.6392 8.25694 17.6496 8.41319 17.6149 8.57292C17.5802 8.73264 17.4934 8.875 17.3545 9L14.292 11.6458L15.2087 15.5833C15.2503 15.7639 15.2364 15.9271 15.167 16.0729C15.0975 16.2187 15.0003 16.3403 14.8753 16.4375C14.7503 16.5347 14.6045 16.5903 14.4378 16.6042C14.2712 16.6181 14.1114 16.5764 13.9587 16.4792L10.5003 14.3958Z" fill="currentColor"/>
</svg>
