<svg  viewBox="0 0 24 24" fill="none" xmlns="http://www.w3.org/2000/svg">
<g clip-path="url(#clip0_1131_9711)">
<path fill-rule="evenodd" clip-rule="evenodd" d="M12.4797 -0.000244141C17.9103 -0.000244141 20.6256 0.000198483 22.3127 1.68726C23.9998 3.37432 24.0002 6.08966 24.0002 11.5203V12.4802C24.0002 17.9107 23.9998 20.6262 22.3127 22.3132C20.6256 24 17.9101 23.9998 12.4797 23.9998H11.5198C6.08933 23.9998 3.37381 24.0003 1.68677 22.3132C-0.000266552 20.6262 0.000244141 17.9107 0.000244141 12.4802V11.5203C0.000244141 6.08993 -5.32866e-05 3.37434 1.68677 1.68726C3.37381 0.000214219 6.08933 -0.00024414 11.5198 -0.000244141H12.4797ZM16.9065 7.22339C16.4551 7.23142 15.7619 7.47228 12.4299 8.85815C11.2626 9.34368 8.9298 10.3488 5.43188 11.8728C4.86406 12.0987 4.56639 12.3198 4.53931 12.5359C4.48754 12.9506 5.08487 13.0798 5.83618 13.324C6.44877 13.5231 7.27289 13.756 7.70142 13.7654C8.09007 13.7738 8.52426 13.6138 9.00317 13.2849C12.2717 11.0786 13.9588 9.96325 14.0647 9.93921C14.1394 9.92225 14.2426 9.90129 14.3127 9.96362C14.3829 10.026 14.3768 10.1439 14.3694 10.1755C14.3096 10.4291 11.2409 13.2202 11.0627 13.405C10.3875 14.1063 9.61921 14.5354 10.804 15.3162C11.8291 15.9917 12.4257 16.4228 13.4817 17.115C14.1566 17.5574 14.6862 18.0824 15.3831 18.0183C15.7037 17.9888 16.0352 17.687 16.2034 16.7878C16.6009 14.6626 17.3822 10.0574 17.5627 8.15991C17.5785 7.99386 17.5582 7.78165 17.5422 7.68823C17.5263 7.59484 17.4927 7.46154 17.3713 7.36304C17.2276 7.24652 17.0057 7.22164 16.9065 7.22339Z" fill="currentColor"/>
</g>
<defs>
<clipPath id="clip0_1131_9711">
<rect width="24" height="24" fill="white"/>
</clipPath>
</defs>
</svg>
