<svg viewBox="0 0 24 24" fill="none" xmlns="http://www.w3.org/2000/svg">
<mask id="mask0_2161_13415" style="mask-type:alpha" maskUnits="userSpaceOnUse" x="0" y="0" width="24" height="24">
<rect width="24" height="24" fill="#D9D9D9"/>
</mask>
<g mask="url(#mask0_2161_13415)">
<path d="M4 9C3.71667 9 3.47917 8.90417 3.2875 8.7125C3.09583 8.52083 3 8.28333 3 8V6C3 5.71667 3.09583 5.47917 3.2875 5.2875C3.47917 5.09583 3.71667 5 4 5H6C6.28333 5 6.52083 5.09583 6.7125 5.2875C6.90417 5.47917 7 5.71667 7 6V8C7 8.28333 6.90417 8.52083 6.7125 8.7125C6.52083 8.90417 6.28333 9 6 9H4ZM9 9C8.71667 9 8.47917 8.90417 8.2875 8.7125C8.09583 8.52083 8 8.28333 8 8V6C8 5.71667 8.09583 5.47917 8.2875 5.2875C8.47917 5.09583 8.71667 5 9 5H20C20.2833 5 20.5208 5.09583 20.7125 5.2875C20.9042 5.47917 21 5.71667 21 6V8C21 8.28333 20.9042 8.52083 20.7125 8.7125C20.5208 8.90417 20.2833 9 20 9H9ZM9 14C8.71667 14 8.47917 13.9042 8.2875 13.7125C8.09583 13.5208 8 13.2833 8 13V11C8 10.7167 8.09583 10.4792 8.2875 10.2875C8.47917 10.0958 8.71667 10 9 10H20C20.2833 10 20.5208 10.0958 20.7125 10.2875C20.9042 10.4792 21 10.7167 21 11V13C21 13.2833 20.9042 13.5208 20.7125 13.7125C20.5208 13.9042 20.2833 14 20 14H9ZM9 19C8.71667 19 8.47917 18.9042 8.2875 18.7125C8.09583 18.5208 8 18.2833 8 18V16C8 15.7167 8.09583 15.4792 8.2875 15.2875C8.47917 15.0958 8.71667 15 9 15H20C20.2833 15 20.5208 15.0958 20.7125 15.2875C20.9042 15.4792 21 15.7167 21 16V18C21 18.2833 20.9042 18.5208 20.7125 18.7125C20.5208 18.9042 20.2833 19 20 19H9ZM4 19C3.71667 19 3.47917 18.9042 3.2875 18.7125C3.09583 18.5208 3 18.2833 3 18V16C3 15.7167 3.09583 15.4792 3.2875 15.2875C3.47917 15.0958 3.71667 15 4 15H6C6.28333 15 6.52083 15.0958 6.7125 15.2875C6.90417 15.4792 7 15.7167 7 16V18C7 18.2833 6.90417 18.5208 6.7125 18.7125C6.52083 18.9042 6.28333 19 6 19H4ZM4 14C3.71667 14 3.47917 13.9042 3.2875 13.7125C3.09583 13.5208 3 13.2833 3 13V11C3 10.7167 3.09583 10.4792 3.2875 10.2875C3.47917 10.0958 3.71667 10 4 10H6C6.28333 10 6.52083 10.0958 6.7125 10.2875C6.90417 10.4792 7 10.7167 7 11V13C7 13.2833 6.90417 13.5208 6.7125 13.7125C6.52083 13.9042 6.28333 14 6 14H4Z" fill="currentColor"/>
</g>
</svg>
