<svg viewBox="0 0 24 24" fill="none" xmlns="http://www.w3.org/2000/svg">
<g clip-path="url(#clip0_1131_9712)">
<path fill-rule="evenodd" clip-rule="evenodd" d="M12.4805 0C17.9107 1.39934e-09 20.6254 0.000491142 22.3125 1.6875C23.9995 3.37452 24 6.08924 24 11.5195V12.4805C24 17.9108 23.9995 20.6254 22.3125 22.3125C20.6254 23.9995 17.9108 24 12.4805 24H11.5195C6.08924 24 3.37452 23.9995 1.6875 22.3125C0.000491142 20.6254 1.39935e-09 17.9107 0 12.4805V11.5195C1.39934e-09 6.08924 0.000483632 3.37452 1.6875 1.6875C3.37452 0.000483632 6.08924 1.39935e-09 11.5195 0H12.4805ZM4.0498 7.30078C4.1798 13.5406 7.29982 17.2908 12.7695 17.291H13.0801V13.7207C15.0901 13.9207 16.6097 15.391 17.2197 17.291H20.0596C19.2796 14.4513 17.2302 12.8814 15.9502 12.2812C17.2302 11.5413 19.03 9.74078 19.46 7.30078H16.8799C16.3199 9.28078 14.6601 11.081 13.0801 11.251V7.30078H10.5V14.2207C8.9 13.8207 6.88004 11.8808 6.79004 7.30078H4.0498Z" fill="currentColor"/>
</g>
<defs>
<clipPath id="clip0_1131_9712">
<rect width="24" height="24" fill="white"/>
</clipPath>
</defs>
</svg>
