<svg viewBox="0 0 24 24" fill="none" xmlns="http://www.w3.org/2000/svg">
<path fill-rule="evenodd" clip-rule="evenodd" d="M10.8249 5.32403C11.0847 5.44892 11.25 5.7117 11.25 6.00001V18C11.25 18.2883 11.0847 18.5511 10.8249 18.676C10.565 18.8009 10.2566 18.7658 10.0315 18.5857L6.48691 15.75H3C2.58579 15.75 2.25 15.4142 2.25 15V9.00001C2.25 8.58579 2.58579 8.25001 3 8.25001H6.48691L10.0315 5.41436C10.2566 5.23425 10.565 5.19914 10.8249 5.32403Z" fill="currentColor"/>
<path fill-rule="evenodd" clip-rule="evenodd" d="M21.5303 8.46967C21.8232 8.76256 21.8232 9.23744 21.5303 9.53033L15.5303 15.5303C15.2374 15.8232 14.7626 15.8232 14.4697 15.5303C14.1768 15.2374 14.1768 14.7626 14.4697 14.4697L20.4697 8.46967C20.7626 8.17678 21.2374 8.17678 21.5303 8.46967Z" fill="currentColor"/>
<path fill-rule="evenodd" clip-rule="evenodd" d="M14.4697 8.46967C14.1768 8.76256 14.1768 9.23744 14.4697 9.53033L20.4697 15.5303C20.7626 15.8232 21.2374 15.8232 21.5303 15.5303C21.8232 15.2374 21.8232 14.7626 21.5303 14.4697L15.5303 8.46967C15.2374 8.17678 14.7626 8.17678 14.4697 8.46967Z" fill="currentColor"/>
</svg>
