<svg viewBox="0 0 24 24" fill="none" xmlns="http://www.w3.org/2000/svg">
<path d="M18.0345 21.0156C20.3418 18.7083 21.7689 15.5208 21.7689 12C21.7689 8.47917 20.3418 5.29167 18.0345 2.98438L16.9738 4.04504C19.0097 6.08088 20.2689 8.89338 20.2689 12C20.2689 15.1066 19.0097 17.9191 16.9738 19.9549L18.0345 21.0156Z" fill="currentColor"/>
<path d="M15.9132 18.8943C17.6776 17.1299 18.7689 14.6924 18.7689 12C18.7689 9.3076 17.6776 6.8701 15.9132 5.1057L14.8525 6.16636C16.3455 7.65931 17.2689 9.72181 17.2689 12C17.2689 14.2782 16.3455 16.3407 14.8525 17.8336L15.9132 18.8943Z" fill="currentColor"/>
<path d="M13.7919 16.773C15.0134 15.5514 15.7689 13.8639 15.7689 12C15.7689 10.136 15.0134 8.44853 13.7919 7.22702L12.7312 8.28768C13.6813 9.23774 14.2689 10.5502 14.2689 12C14.2689 13.4497 13.6813 14.7622 12.7312 15.7123L13.7919 16.773Z" fill="currentColor"/>
<path fill-rule="evenodd" clip-rule="evenodd" d="M10.8061 5.32401C11.0659 5.4489 11.2312 5.71169 11.2312 5.99999V18C11.2312 18.2883 11.0659 18.5511 10.8061 18.676C10.5462 18.8009 10.2378 18.7657 10.0127 18.5856L6.46812 15.75H2.9812C2.56699 15.75 2.2312 15.4142 2.2312 15V8.99999C2.2312 8.58578 2.56699 8.24999 2.9812 8.24999H6.46812L10.0127 5.41434C10.2378 5.23424 10.5462 5.19912 10.8061 5.32401Z" fill="currentColor"/>
</svg>
