<svg viewBox="0 0 24 24" fill="none" xmlns="http://www.w3.org/2000/svg">
<path fill-rule="evenodd" clip-rule="evenodd" d="M13.8061 5.32403C14.0659 5.44892 14.2312 5.7117 14.2312 6.00001V18C14.2312 18.2883 14.0659 18.5511 13.8061 18.676C13.5462 18.8009 13.2378 18.7658 13.0127 18.5857L9.46812 15.75H5.9812C5.56699 15.75 5.2312 15.4142 5.2312 15V9.00001C5.2312 8.58579 5.56699 8.25001 5.9812 8.25001H9.46812L13.0127 5.41436C13.2378 5.23425 13.5462 5.19914 13.8061 5.32403Z" fill="currentColor"/>
<path d="M16.7919 16.773C18.0134 15.5515 18.7689 13.864 18.7689 12C18.7689 10.1361 18.0134 8.44856 16.7919 7.22705L15.7312 8.28771C16.6813 9.23777 17.2689 10.5503 17.2689 12C17.2689 13.4498 16.6813 14.7623 15.7312 15.7123L16.7919 16.773Z" fill="currentColor"/>
</svg>
